# AST/ASF file generated using VICON BodyLanguage
# -----------------------------------------------
:version 1.10
:name VICON
:units
  mass 1.0
  length 0.45
  angle deg
:documentation
   .ast/.asf automatically generated from VICON data using
   VICON BodyBuilder and BodyLanguage model FoxedUp or BRILLIANT.MOD
:root
   order TX TY TZ RX RY RZ
   axis XYZ
   position 0 0 0  
   orientation 0 0 0 
:bonedata
  begin
     id 1 
     name lhipjoint
     direction 0.646657 -0.683706 0.338203 
     length 2.4948 
     axis 0 0 0  XYZ
  end
  begin
     id 2 
     name lfemur
     direction 0.34202 -0.939693 0  
     length 6.79491  
     axis 0 0 20  XYZ
    dof rx ry rz
    limits (-160.0 20.0)
           (-70.0 70.0)
           (-60.0 70.0)
  end
  begin
     id 3 
     name ltibia
     direction 0.34202 -0.939693 0   
     length 7.56807   
     axis 0 0 20   XYZ
    dof rx
    limits (-10.0 170.0)
  end
  begin
     id 4 
     name lfoot
     direction 0.0679796 -0.186772 0.980048   
     length 2.53018   
     axis -90 7.62852e-016 20   XYZ
    dof rx rz
    limits (-45.0 90.0)
           (-70.0 20.0)
  end
  begin
     id 5 
     name ltoes
     direction 1.53625e-011 -4.21881e-011 1   
     length 1.26912   
     axis -90 7.62852e-016 20   XYZ
    dof rx
    limits (-90.0 20.0)
  end
  begin
     id 6 
     name rhipjoint
     direction -0.618868 -0.704065 0.348274   
     length 2.42265  
     axis 0 0 0  XYZ 
  end
  begin
     id 7 
     name rfemur
     direction -0.34202 -0.939693 0   
     length 6.73814   
     axis 0 0 -20   XYZ
    dof rx ry rz
    limits (-160.0 20.0)
           (-70.0 70.0)
           (-70.0 60.0)
  end
  begin
     id 8 
     name rtibia
     direction -0.34202 -0.939693 0   
     length 7.66799   
     axis 0 0 -20   XYZ
    dof rx
    limits (-10.0 170.0)
 end
 begin
     id 9 
     name rfoot
     direction -0.0727352 -0.199838 0.977125   
     length 2.57224  
     axis -90 -7.62852e-016 -20   XYZ
    dof rx rz
    limits (-45.0 90.0)
           (-20.0 70.0)
  end
  begin
     id 10 
     name rtoes
     direction -1.53501e-011 -4.21858e-011 1   
     length 1.28858   
     axis -90 -7.62852e-016 -20   XYZ
    dof rx
    limits (-90.0 20.0)
  end
  begin
     id 11 
     name lowerback
     direction -0.0172471 0.995767 -0.0902851   
     length 2.20206   
     axis 0 0 0   XYZ
    dof rx ry rz
    limits (-20.0 45.0)
           (-30.0 30.0)
           (-30.0 30.0)
  end
  begin
     id 12 
     name upperback
     direction -0.000110737 0.999714 0.0239043   
     length 2.19523   
     axis 0 0 0   XYZ
    dof rx ry rz
    limits (-20.0 45.0)
           (-30.0 30.0)
           (-30.0 30.0)
  end
  begin
     id 13 
     name thorax
     direction 0.00704869 0.997783 0.0661741   
     length 2.21977   
     axis 0 0 0   XYZ
    dof rx ry rz
    limits (-20.0 45.0)
           (-30.0 30.0)
           (-30.0 30.0)
  end
  begin
     id 14 
     name lowerneck
     direction -0.00407501 0.995527 0.0943846   
     length 1.83142   
     axis 0 0 0   XYZ
    dof rx ry rz
    limits (-20.0 45.0)
           (-30.0 30.0)
           (-30.0 30.0)
  end
  begin
     id 15 
     name upperneck
     direction 0.0640586 0.986486 -0.150807   
     length 1.84616   
     axis 0 0 0   XYZ
    dof rx ry rz
    limits (-20.0 45.0)
           (-30.0 30.0)
           (-30.0 30.0)
  end
  begin
     id 16
     name head
     direction 0.0188017 0.99791 -0.0618239  
     length 1.85932  
     axis 0 0 0   XYZ
    dof rx ry rz
    limits (-20.0 45.0)
           (-30.0 30.0)
           (-30.0 30.0)
  end
  begin
     id 17 
     name lclavicle
     direction 0.976074 0.206905 0.066852  
     length 3.81043  
     axis 0 0 0   XYZ
    dof ry rz
    limits (-20.0 10.0)
           (0.0 20.0)
  end
  begin
     id 18 
     name lhumerus
     direction 1 -4.48971e-011 1.86916e-027   
     length 5.37587   
     axis 180 -30 -90   XYZ
    dof rx ry rz
    limits (-60.0 90.0)
           (-90.0 90.0)
           (-90.0 90.0)
  end
  begin
     id 19
     name lradius
     direction 1 -4.48968e-011 1.69187e-027   
     length 3.35977   
     axis 180 -30 -90   XYZ
    dof rx
    limits (-10.0 170.0)
  end
  begin
     id 20
     name lwrist
     direction 1 -4.48968e-011 5.8978e-027   
     length 1.67988   
     axis -3.27506e-015 90 90   XYZ
    dof ry
    limits (-180.0 0.0)
 end
  begin
     id 21 
     name lhand
     direction 1 -4.49028e-011 1.18071e-026   
     length 0.561859   
     axis -7.52654e-015 90 90   XYZ
    dof rx rz
    limits (-90.0 90.0)
           (-45.0 45.0)
  end
  begin
     id 22 
     name lfingers
     direction 1 -4.48927e-011 2.35758e-026   
     length 0.452985   
     axis -1.50534e-014 90 90   XYZ
    dof rx
    limits (0.0 90.0)
  end
  begin
     id 23
     name lthumb
     direction 0.707107 -6.34898e-011 0.707107   
     length 0.650399   
     axis -90 45 5.69224e-014   XYZ
    dof rx rz
    limits (-45.0 45.0)
           (-45.0 45.0)
  end
  begin
     id 24 
     name rclavicle
     direction -0.988403 0.151789 0.00439714   
     length 3.6942  
     axis 0 0 0   XYZ 
    dof ry rz
    limits (-10.0 20.0)
           (-20.0 0.0)
  end
  begin
     id 25 
     name rhumerus
     direction -1 -4.48978e-011 1.62495e-027  
     length 5.22819   
     axis 180 30 90   XYZ
    dof rx ry rz
    limits (-90.0 60.0)
           (-90.0 90.0)
           (-90.0 90.0)
  end
  begin
     id 26 
     name rradius
     direction -1 -4.48961e-011 3.47796e-027   
     length 3.40764   
     axis 180 30 90   XYZ
    dof rx
    limits (-10.0 170.0)
  end
  begin
     id 27 
     name rwrist
     direction -1 -4.48949e-011 5.89602e-027   
     length 1.70382   
     axis -3.27506e-015 -90 -90   XYZ
    dof ry
    limits (-180.0 0.0)
  end
  begin
     id 28
     name rhand
     direction -1 -4.48977e-011 1.17973e-026   
     length 0.583255   
     axis -7.52654e-015 -90 -90   XYZ
    dof rx rz
    limits (-90.0 90.0)
           (-45.0 45.0)
  end
  begin
     id 29
     name rfingers
     direction -1 -4.49099e-011 2.36408e-026   
     length 0.470235   
     axis -1.50534e-014 -90 -90   XYZ
    dof rx
    limits (0.0 90.0)
  end
  begin
     id 30
     name rthumb
     direction -0.707107 -6.35011e-011 0.707107   
     length 0.675167   
     axis -90 -45 -5.69224e-014   XYZ
    dof rx rz
    limits (-45.0 45.0)
           (-45.0 45.0)
  end
:hierarchy
  begin
    root lhipjoint rhipjoint lowerback
    lhipjoint lfemur
    lfemur ltibia
    ltibia lfoot
    lfoot ltoes
    rhipjoint rfemur
    rfemur rtibia
    rtibia rfoot
    rfoot rtoes
    lowerback upperback
    upperback thorax
    thorax lowerneck lclavicle rclavicle
    lowerneck upperneck
    upperneck head
    lclavicle lhumerus
    lhumerus lradius
    lradius lwrist
    lwrist lhand lthumb
    lhand lfingers
    rclavicle rhumerus
    rhumerus rradius
    rradius rwrist
    rwrist rhand rthumb
    rhand rfingers
  end

#!OML:ASF G:\JayActor3\Patient Classification 1\Patient 1\Session 2\male.ASF
:FULLY-SPECIFIED
:DEGREES
1138
root 1.31708 17.025 -5.28421 1258.31 86.4152 -540.993
lowerback 1.32593 0.0943373 2.07922
upperback 1.46407 0.153462 0.833334
thorax 0.759107 0.0987983 -0.312726
lowerneck -11.8093 -3.72336 -3.6215
upperneck 5.28542 -4.94012 6.59259
head 3.75204 -2.16655 2.27075
rclavicle 4.07509e-015 -1.98785e-015
rhumerus -29.3902 6.7862 -90.7884
rradius 31.1987
rwrist -12.298
rhand -24.3571 3.13825
rfingers 7.12502
rthumb 2.13246 -26.8308
lclavicle 4.07509e-015 -1.98785e-015
lhumerus -44.3701 23.8985 68.9471
lradius 11.8705
lwrist -7.07465
lhand -16.3045 18.9731
lfingers 7.12502
lthumb 9.90639 48.72
rfemur -10.073 4.66767 24.5187
rtibia 34.7614
rfoot -23.1373 -8.87736
rtoes 17.6079
lfemur -23.9853 10.4029 -18.8526
ltibia 63.5791
lfoot -5.15476 4.65988
ltoes -12.9918
1139
root 1.51295 17.0388 -5.28498 1259.59 86.5763 -539.882
lowerback 1.20452 0.26721 2.18264
upperback 1.42655 0.380741 0.751305
thorax 0.794759 0.213256 -0.455414
lowerneck -11.7906 -3.82338 -3.74826
upperneck 5.30954 -5.06549 6.69569
head 3.76897 -2.22572 2.31374
rclavicle 2.1096e-014 -8.34896e-015
rhumerus -28.8108 8.32183 -91.3771
rradius 32.4443
rwrist -12.8899
rhand -24.1555 2.95148
rfingers 7.12502
rthumb 2.32721 -27.0156
lclavicle 2.1096e-014 -8.34896e-015
lhumerus -44.9573 21.7129 70.0332
lradius 12.8125
lwrist -4.47636
lhand -15.4016 18.9224
lfingers 7.12502
lthumb 10.7774 48.626
rfemur -9.24445 4.11854 24.6269
rtibia 34.2272
rfoot -23.1403 -8.35142
rtoes 17.3677
lfemur -25.1304 10.3776 -19.3148
ltibia 61.8559
lfoot -6.06292 5.12529
ltoes -13.058
1140
root 1.7087 17.0515 -5.28577 1261.45 86.7125 -538.184
lowerback 1.09817 0.424838 2.30059
upperback 1.39691 0.588168 0.682449
thorax 0.831024 0.318063 -0.592036
lowerneck -11.7703 -3.92026 -3.87596
upperneck 5.30174 -5.18474 6.79856
head 3.77592 -2.28233 2.35743
rclavicle -1.2275e-014 -1.63003e-014
rhumerus -28.2259 9.83423 -91.8804
rradius 33.7207
rwrist -13.3953
rhand -24.0118 2.8305
rfingers 7.12502
rthumb 2.46595 -27.135
lclavicle -1.2275e-014 -1.63003e-014
lhumerus -45.6454 19.7787 70.9587
lradius 13.8092
lwrist -2.16754
lhand -14.5831 18.9268
lfingers 7.12502
lthumb 11.5669 48.5876
rfemur -8.39524 3.45553 24.743
rtibia 33.6504
rfoot -23.1093 -7.80311
rtoes 17.0998
lfemur -26.1634 10.3152 -19.7274
ltibia 59.917
lfoot -6.91835 5.66239
ltoes -13.0589
1141
root 1.90499 17.0635 -5.28668 1264.14 86.8155 -535.641
lowerback 1.00143 0.566086 2.44888
upperback 1.37877 0.774055 0.629374
thorax 0.874629 0.412647 -0.728845
lowerneck -11.7607 -4.01359 -3.99676
upperneck 5.27897 -5.29823 6.89003
head 3.77946 -2.33653 2.39682
rclavicle 1.18401e-014 -1.98785e-015
rhumerus -27.6214 11.3169 -92.297
rradius 35.0078
rwrist -13.8198
rhand -23.9148 2.76752
rfingers 7.12502
rthumb 2.55962 -27.1969
lclavicle 1.18401e-014 -1.98785e-015
lhumerus -46.4061 18.0846 71.7336
lradius 14.836
lwrist -0.132729
lhand -13.8971 18.9879
lfingers 7.12502
lthumb 12.2283 48.6104
rfemur -7.49886 2.69312 24.8802
rtibia 33.0017
rfoot -23.0541 -7.24916
rtoes 16.7803
lfemur -27.0725 10.2257 -20.0741
ltibia 57.7675
lfoot -7.71224 6.27681
ltoes -13.0899
1142
root 2.102 17.0746 -5.28782 1267.77 86.8755 -532.148
lowerback 0.91204 0.691253 2.63707
upperback 1.37203 0.938648 0.591795
thorax 0.926802 0.49728 -0.871565
lowerneck -11.7642 -4.10327 -4.10945
upperneck 5.24946 -5.40663 6.97399
head 3.78258 -2.38824 2.43279
rclavicle 8.57259e-016 -2.78299e-015
rhumerus -26.9969 12.7672 -92.631
rradius 36.3033
rwrist -14.1907
rhand -23.8739 2.76603
rfingers 7.12502
rthumb 2.59918 -27.1979
lclavicle 8.57259e-016 -2.78299e-015
lhumerus -47.212 16.6178 72.3606
lradius 15.8593
lwrist 1.63387
lhand -13.3554 19.07
lfingers 7.12502
lthumb 12.7506 48.6607
rfemur -6.54246 1.85412 25.0448
rtibia 32.2662
rfoot -22.9797 -6.69837
rtoes 16.4209
lfemur -27.8614 10.1163 -20.3471
ltibia 55.4247
lfoot -8.46354 6.96635
ltoes -12.9879
1143
root 2.30013 17.0832 -5.2896 1272.39 86.8971 -527.653
lowerback 0.821053 0.805408 2.87426
upperback 1.37939 1.08823 0.571185
thorax 0.995724 0.575392 -1.02366
lowerneck -11.7811 -4.18782 -4.20902
upperneck 5.22241 -5.50862 7.04302
head 3.78765 -2.43696 2.46228
rclavicle 1.45361e-014 8.34896e-015
rhumerus -26.3474 14.1729 -92.8769
rradius 37.6035
rwrist -14.5052
rhand -23.8531 2.76909
rfingers 7.12502
rthumb 2.61926 -27.1946
lclavicle 1.45361e-014 8.34896e-015
lhumerus -48.0404 15.3603 72.8531
lradius 16.8519
lwrist 3.15345
lhand -13.0058 19.1472
lfingers 7.12502
lthumb 13.0876 48.7165
rfemur -5.52022 0.964954 25.238
rtibia 31.4448
rfoot -22.8932 -6.13229
rtoes 16.0688
lfemur -28.5341 10.0106 -20.5446
ltibia 52.9162
lfoot -9.18779 7.72665
ltoes -12.8334
1144
root 2.49902 17.0883 -5.29186 1277.8 86.8699 -522.359
lowerback 0.728479 0.908056 3.15594
upperback 1.39404 1.22195 0.565736
thorax 1.07436 0.646459 -1.18452
lowerneck -11.8155 -4.26499 -4.29848
upperneck 5.20998 -5.6019 7.1048
head 3.79916 -2.48099 2.48815
rclavicle 9.11925e-015 4.17448e-015
rhumerus -25.681 15.5279 -93.0423
rradius 38.9134
rwrist -14.7821
rhand -23.8586 2.76689
rfingers 7.12502
rthumb 2.61388 -27.1968
lclavicle 9.11925e-015 4.17448e-015
lhumerus -48.8762 14.289 73.2207
lradius 17.7876
lwrist 4.44598
lhand -12.8047 19.2034
lfingers 7.12502
lthumb 13.2814 48.7602
rfemur -4.4458 0.0401959 25.454
rtibia 30.5486
rfoot -22.7811 -5.55362
rtoes 15.6619
lfemur -29.1157 9.92165 -20.6724
ltibia 50.2735
lfoot -9.89922 8.52165
ltoes -12.6134
1145
root 2.6984 17.0884 -5.29447 1283.64 86.7832 -516.631
lowerback 0.636977 1.00042 3.4745
upperback 1.41273 1.34139 0.572282
thorax 1.15785 0.711182 -1.35324
lowerneck -11.8501 -4.33546 -4.37607
upperneck 5.20438 -5.68825 7.1659
head 3.81218 -2.52124 2.51231
rclavicle 1.09953e-014 -7.95139e-016
rhumerus -25.0081 16.8164 -93.135
rradius 40.24
rwrist -15.0505
rhand -23.9059 2.76965
rfingers 7.12502
rthumb 2.56825 -27.1946
lclavicle 1.09953e-014 -7.95139e-016
lhumerus -49.7047 13.3732 73.4753
lradius 18.6464
lwrist 5.53464
lhand -12.7463 19.1903
lfingers 7.12502
lthumb 13.3378 48.7435
rfemur -3.32697 -0.891703 25.6877
rtibia 29.5963
rfoot -22.645 -4.95612
rtoes 15.2014
lfemur -29.6215 9.85982 -20.7384
ltibia 47.5279
lfoot -10.5859 9.31497
ltoes -12.4455
1146
root 2.89773 17.083 -5.29693 1289.67 86.6533 -510.715
lowerback 0.548134 1.08666 3.81451
upperback 1.42987 1.45212 0.590578
thorax 1.23943 0.77203 -1.52154
lowerneck -11.89 -4.39614 -4.44836
upperneck 5.21043 -5.76313 7.23189
head 3.82907 -2.55515 2.53779
rclavicle 4.96962e-017 -9.93923e-016
rhumerus -24.3316 18.0401 -93.1638
rradius 41.5785
rwrist -15.3091
rhand -24.0128 2.8132
rfingers 7.12502
rthumb 2.46498 -27.1523
lclavicle 4.96962e-017 -9.93923e-016
lhumerus -50.5173 12.6111 73.6184
lradius 19.4131
lwrist 6.42819
lhand -12.8032 19.108
lfingers 7.12502
lthumb 13.2829 48.6648
rfemur -2.18664 -1.77058 25.9353
rtibia 28.6041
rfoot -22.4814 -4.35139
rtoes 14.6918
lfemur -30.0774 9.84137 -20.7507
ltibia 44.7099
lfoot -11.2271 10.0473
ltoes -12.3526
1147
root 3.09665 17.0714 -5.2991 1295.33 86.4714 -505.161
lowerback 0.469767 1.16371 4.15867
upperback 1.44249 1.55051 0.61456
thorax 1.311 0.826809 -1.68629
lowerneck -11.9187 -4.44903 -4.51122
upperneck 5.22197 -5.83013 7.30343
head 3.84541 -2.58481 2.56416
rclavicle -9.81499e-016 -9.14409e-015
rhumerus -23.6612 19.1841 -93.1401
rradius 42.9256
rwrist -15.5654
rhand -24.1646 2.87356
rfingers 7.12502
rthumb 2.3184 -27.0936
lclavicle -9.81499e-016 -9.14409e-015
lhumerus -51.3082 11.9834 73.6535
lradius 20.0804
lwrist 7.14111
lhand -12.9542 18.9645
lfingers 7.12502
lthumb 13.1374 48.5307
rfemur -1.02438 -2.54955 26.1956
rtibia 27.587
rfoot -22.315 -3.7789
rtoes 14.1088
lfemur -30.4943 9.84368 -20.7225
ltibia 41.8495
lfoot -11.7857 10.6529
ltoes -12.3669
1148
root 3.29479 17.0538 -5.30089 1300.58 86.2551 -500.01
lowerback 0.402387 1.2348 4.4995
upperback 1.45526 1.64095 0.643866
thorax 1.37694 0.877739 -1.84367
lowerneck -11.9446 -4.49128 -4.56284
upperneck 5.23399 -5.88494 7.37907
head 3.86063 -2.60799 2.59095
rclavicle -2.3556e-014 6.16232e-015
rhumerus -22.9877 20.2506 -93.0689
rradius 44.2754
rwrist -15.8161
rhand -24.3455 2.951
rfingers 7.12502
rthumb 2.14365 -27.018
lclavicle -2.3556e-014 6.16232e-015
lhumerus -52.0581 11.5006 73.5755
lradius 20.6353
lwrist 7.67437
lhand -13.1626 18.7649
lfingers 7.12502
lthumb 12.9365 48.3439
rfemur 0.15196 -3.1767 26.4766
rtibia 26.5535
rfoot -22.1618 -3.27295
rtoes 13.4952
lfemur -30.8858 9.85609 -20.6509
ltibia 38.9805
lfoot -12.2498 11.0544
ltoes -12.3555
